<mxfile host="Electron" modified="2024-02-04T18:49:11.815Z" agent="Mozilla/5.0 (Windows NT 10.0; Win64; x64) AppleWebKit/537.36 (KHTML, like Gecko) draw.io/23.0.2 Chrome/120.0.6099.109 Electron/28.1.0 Safari/537.36" etag="kr0vcXjRsi0kNH8dXU60" version="23.0.2" type="device">
  <diagram name="Page-1" id="mU4iH4EkpXWHBf1g7v1E">
    <mxGraphModel dx="700" dy="412" grid="1" gridSize="10" guides="1" tooltips="1" connect="1" arrows="1" fold="1" page="1" pageScale="1" pageWidth="1600" pageHeight="1200" math="0" shadow="0">
      <root>
        <mxCell id="0" />
        <mxCell id="1" parent="0" />
        <mxCell id="0D3TFCyI8cRWbyXOFq5x-3" value="" style="rounded=0;orthogonalLoop=1;jettySize=auto;html=1;fillColor=#60a917;strokeColor=#2D7600;" parent="1" source="0D3TFCyI8cRWbyXOFq5x-1" target="0D3TFCyI8cRWbyXOFq5x-2" edge="1">
          <mxGeometry relative="1" as="geometry" />
        </mxCell>
        <mxCell id="0D3TFCyI8cRWbyXOFq5x-5" value="" style="rounded=0;orthogonalLoop=1;jettySize=auto;html=1;fillColor=#0050ef;strokeColor=#001DBC;entryX=1;entryY=0.5;entryDx=0;entryDy=0;exitX=0;exitY=0.5;exitDx=0;exitDy=0;" parent="1" source="TAm4954lU4xSoZH0EgDK-1" target="0D3TFCyI8cRWbyXOFq5x-4" edge="1">
          <mxGeometry relative="1" as="geometry">
            <mxPoint x="610" y="390" as="sourcePoint" />
          </mxGeometry>
        </mxCell>
        <mxCell id="0D3TFCyI8cRWbyXOFq5x-1" value="&lt;font style=&quot;font-size: 20px;&quot;&gt;Nvidia Jetson Nano&lt;/font&gt;" style="rounded=0;whiteSpace=wrap;html=1;fillColor=#f0a30a;strokeColor=#BD7000;fontColor=#000000;" parent="1" vertex="1">
          <mxGeometry x="740" y="320" width="210" height="140" as="geometry" />
        </mxCell>
        <mxCell id="0D3TFCyI8cRWbyXOFq5x-2" value="&lt;font style=&quot;font-size: 20px;&quot;&gt;SD Card&lt;/font&gt;" style="rounded=0;whiteSpace=wrap;html=1;fillColor=#60a917;strokeColor=#2D7600;fontColor=#ffffff;" parent="1" vertex="1">
          <mxGeometry x="985" y="365" width="110" height="50" as="geometry" />
        </mxCell>
        <mxCell id="0D3TFCyI8cRWbyXOFq5x-4" value="&lt;font style=&quot;font-size: 20px;&quot;&gt;Motor&lt;/font&gt;" style="rounded=0;whiteSpace=wrap;html=1;fillColor=#0050ef;strokeColor=#001DBC;fontColor=#ffffff;" parent="1" vertex="1">
          <mxGeometry x="650" y="510" width="90" height="40" as="geometry" />
        </mxCell>
        <mxCell id="0D3TFCyI8cRWbyXOFq5x-6" value="&lt;span style=&quot;font-size: 20px;&quot;&gt;RXSM&lt;/span&gt;" style="rounded=0;whiteSpace=wrap;html=1;fillColor=#fff2cc;strokeColor=#d6b656;" parent="1" vertex="1">
          <mxGeometry x="790" y="600" width="110" height="40" as="geometry" />
        </mxCell>
        <mxCell id="0D3TFCyI8cRWbyXOFq5x-10" value="&lt;span style=&quot;font-size: 20px;&quot;&gt;Thermistors&lt;/span&gt;" style="rounded=0;whiteSpace=wrap;html=1;fillColor=#647687;strokeColor=#314354;fontColor=#ffffff;" parent="1" vertex="1">
          <mxGeometry x="500" y="440" width="180" height="40" as="geometry" />
        </mxCell>
        <mxCell id="0D3TFCyI8cRWbyXOFq5x-16" value="" style="rounded=0;orthogonalLoop=1;jettySize=auto;html=1;fillColor=#0050ef;strokeColor=#001DBC;exitX=0.5;exitY=0;exitDx=0;exitDy=0;entryX=0;entryY=0.5;entryDx=0;entryDy=0;edgeStyle=orthogonalEdgeStyle;" parent="1" source="0D3TFCyI8cRWbyXOFq5x-10" target="0D3TFCyI8cRWbyXOFq5x-18" edge="1">
          <mxGeometry relative="1" as="geometry">
            <mxPoint x="950" y="510" as="sourcePoint" />
            <mxPoint x="855" y="470" as="targetPoint" />
          </mxGeometry>
        </mxCell>
        <mxCell id="TAm4954lU4xSoZH0EgDK-21" value="Data" style="edgeLabel;html=1;align=center;verticalAlign=middle;resizable=0;points=[];" parent="0D3TFCyI8cRWbyXOFq5x-16" vertex="1" connectable="0">
          <mxGeometry x="0.398" relative="1" as="geometry">
            <mxPoint as="offset" />
          </mxGeometry>
        </mxCell>
        <mxCell id="0D3TFCyI8cRWbyXOFq5x-17" value="&lt;font style=&quot;font-size: 20px;&quot;&gt;Camera&lt;br&gt;&lt;/font&gt;" style="rounded=0;whiteSpace=wrap;html=1;fillColor=#f8cecc;strokeColor=#b85450;" parent="1" vertex="1">
          <mxGeometry x="910" y="230" width="90" height="40" as="geometry" />
        </mxCell>
        <mxCell id="0D3TFCyI8cRWbyXOFq5x-18" value="&lt;font style=&quot;font-size: 20px;&quot;&gt;Sound Card (Labjack U3)&lt;br&gt;&lt;/font&gt;" style="rounded=0;whiteSpace=wrap;html=1;fillColor=#f8cecc;strokeColor=#b85450;" parent="1" vertex="1">
          <mxGeometry x="630" y="230" width="135" height="60" as="geometry" />
        </mxCell>
        <mxCell id="0D3TFCyI8cRWbyXOFq5x-19" value="" style="endArrow=classic;startArrow=classic;html=1;rounded=0;entryX=0.5;entryY=1;entryDx=0;entryDy=0;exitX=0.5;exitY=0;exitDx=0;exitDy=0;" parent="1" source="0D3TFCyI8cRWbyXOFq5x-1" target="0D3TFCyI8cRWbyXOFq5x-18" edge="1">
          <mxGeometry width="50" height="50" relative="1" as="geometry">
            <mxPoint x="630" y="290" as="sourcePoint" />
            <mxPoint x="680" y="240" as="targetPoint" />
          </mxGeometry>
        </mxCell>
        <mxCell id="0D3TFCyI8cRWbyXOFq5x-20" value="" style="endArrow=classic;startArrow=classic;html=1;rounded=0;entryX=0.5;entryY=1;entryDx=0;entryDy=0;exitX=0.5;exitY=0;exitDx=0;exitDy=0;" parent="1" source="0D3TFCyI8cRWbyXOFq5x-1" target="0D3TFCyI8cRWbyXOFq5x-17" edge="1">
          <mxGeometry width="50" height="50" relative="1" as="geometry">
            <mxPoint x="855" y="330" as="sourcePoint" />
            <mxPoint x="928" y="280" as="targetPoint" />
          </mxGeometry>
        </mxCell>
        <mxCell id="0D3TFCyI8cRWbyXOFq5x-23" value="Interface/Arrow legend" style="swimlane;whiteSpace=wrap;html=1;fontSize=10;strokeWidth=0.5;" parent="1" vertex="1">
          <mxGeometry x="980" y="290" width="140" height="60" as="geometry">
            <mxRectangle x="500" y="470" width="150" height="30" as="alternateBounds" />
          </mxGeometry>
        </mxCell>
        <mxCell id="0D3TFCyI8cRWbyXOFq5x-24" value="&lt;b&gt;BLACK &lt;/b&gt;- USB&lt;br style=&quot;font-size: 8px;&quot;&gt;&lt;b&gt;&lt;font color=&quot;#4108ff&quot;&gt;BLUE &lt;/font&gt;&lt;/b&gt;- Wired / No Protocol&lt;br style=&quot;font-size: 8px;&quot;&gt;&lt;b&gt;&lt;font color=&quot;#025a03&quot;&gt;GREEN &lt;/font&gt;&lt;/b&gt;- Other" style="text;html=1;align=left;verticalAlign=middle;resizable=0;points=[];autosize=1;strokeColor=none;fillColor=none;fontSize=8;" parent="0D3TFCyI8cRWbyXOFq5x-23" vertex="1">
          <mxGeometry x="10" y="23" width="120" height="40" as="geometry" />
        </mxCell>
        <mxCell id="TAm4954lU4xSoZH0EgDK-1" value="&lt;font style=&quot;font-size: 20px;&quot;&gt;PCB&lt;/font&gt;" style="rounded=0;whiteSpace=wrap;html=1;fillColor=#1ba1e2;strokeColor=#006EAF;fontColor=#ffffff;" parent="1" vertex="1">
          <mxGeometry x="790" y="500" width="110" height="60" as="geometry" />
        </mxCell>
        <mxCell id="TAm4954lU4xSoZH0EgDK-4" style="edgeStyle=orthogonalEdgeStyle;rounded=0;orthogonalLoop=1;jettySize=auto;html=1;entryX=0;entryY=0;entryDx=0;entryDy=0;fillColor=#fff2cc;strokeColor=#d6b656;exitX=0;exitY=1;exitDx=0;exitDy=0;" parent="1" source="TAm4954lU4xSoZH0EgDK-1" target="0D3TFCyI8cRWbyXOFq5x-6" edge="1">
          <mxGeometry relative="1" as="geometry">
            <mxPoint x="826" y="560" as="sourcePoint" />
            <mxPoint x="855" y="570" as="targetPoint" />
          </mxGeometry>
        </mxCell>
        <mxCell id="TAm4954lU4xSoZH0EgDK-5" value="Downlink" style="edgeLabel;html=1;align=center;verticalAlign=middle;resizable=0;points=[];" parent="TAm4954lU4xSoZH0EgDK-4" vertex="1" connectable="0">
          <mxGeometry x="-0.2833" y="1" relative="1" as="geometry">
            <mxPoint x="-1" y="6" as="offset" />
          </mxGeometry>
        </mxCell>
        <mxCell id="TAm4954lU4xSoZH0EgDK-7" style="edgeStyle=orthogonalEdgeStyle;rounded=0;orthogonalLoop=1;jettySize=auto;html=1;entryX=0.5;entryY=1;entryDx=0;entryDy=0;exitX=0.5;exitY=0;exitDx=0;exitDy=0;fillColor=#60a917;strokeColor=#2D7600;" parent="1" source="0D3TFCyI8cRWbyXOFq5x-6" target="TAm4954lU4xSoZH0EgDK-1" edge="1">
          <mxGeometry relative="1" as="geometry">
            <mxPoint x="810" y="610" as="sourcePoint" />
            <mxPoint x="810" y="570" as="targetPoint" />
          </mxGeometry>
        </mxCell>
        <mxCell id="TAm4954lU4xSoZH0EgDK-8" value="Power" style="edgeLabel;html=1;align=center;verticalAlign=middle;resizable=0;points=[];" parent="TAm4954lU4xSoZH0EgDK-7" vertex="1" connectable="0">
          <mxGeometry x="-0.0667" y="-1" relative="1" as="geometry">
            <mxPoint x="-1" y="-1" as="offset" />
          </mxGeometry>
        </mxCell>
        <mxCell id="TAm4954lU4xSoZH0EgDK-9" style="edgeStyle=orthogonalEdgeStyle;rounded=0;orthogonalLoop=1;jettySize=auto;html=1;entryX=1;entryY=1;entryDx=0;entryDy=0;exitX=1;exitY=0;exitDx=0;exitDy=0;fillColor=#0050ef;strokeColor=#001DBC;" parent="1" source="0D3TFCyI8cRWbyXOFq5x-6" target="TAm4954lU4xSoZH0EgDK-1" edge="1">
          <mxGeometry relative="1" as="geometry">
            <mxPoint x="870" y="611" as="sourcePoint" />
            <mxPoint x="870" y="570" as="targetPoint" />
          </mxGeometry>
        </mxCell>
        <mxCell id="TAm4954lU4xSoZH0EgDK-10" value="Signals" style="edgeLabel;html=1;align=center;verticalAlign=middle;resizable=0;points=[];" parent="TAm4954lU4xSoZH0EgDK-9" vertex="1" connectable="0">
          <mxGeometry x="-0.0667" y="-1" relative="1" as="geometry">
            <mxPoint x="-1" y="-1" as="offset" />
          </mxGeometry>
        </mxCell>
        <mxCell id="TAm4954lU4xSoZH0EgDK-13" style="rounded=0;orthogonalLoop=1;jettySize=auto;html=1;entryX=0.75;entryY=1;entryDx=0;entryDy=0;exitX=0.75;exitY=0;exitDx=0;exitDy=0;fillColor=#0050ef;strokeColor=#001DBC;" parent="1" source="TAm4954lU4xSoZH0EgDK-1" target="0D3TFCyI8cRWbyXOFq5x-1" edge="1">
          <mxGeometry relative="1" as="geometry">
            <mxPoint x="910" y="610" as="sourcePoint" />
            <mxPoint x="910" y="570" as="targetPoint" />
          </mxGeometry>
        </mxCell>
        <mxCell id="TAm4954lU4xSoZH0EgDK-14" value="Signals" style="edgeLabel;html=1;align=center;verticalAlign=middle;resizable=0;points=[];" parent="TAm4954lU4xSoZH0EgDK-13" vertex="1" connectable="0">
          <mxGeometry x="-0.0667" y="-1" relative="1" as="geometry">
            <mxPoint x="-1" y="-1" as="offset" />
          </mxGeometry>
        </mxCell>
        <mxCell id="TAm4954lU4xSoZH0EgDK-15" style="edgeStyle=orthogonalEdgeStyle;rounded=0;orthogonalLoop=1;jettySize=auto;html=1;entryX=0.503;entryY=1.017;entryDx=0;entryDy=0;exitX=0.5;exitY=0;exitDx=0;exitDy=0;fillColor=#60a917;strokeColor=#2D7600;entryPerimeter=0;" parent="1" source="TAm4954lU4xSoZH0EgDK-1" target="0D3TFCyI8cRWbyXOFq5x-1" edge="1">
          <mxGeometry relative="1" as="geometry">
            <mxPoint x="860" y="520" as="sourcePoint" />
            <mxPoint x="860" y="480" as="targetPoint" />
          </mxGeometry>
        </mxCell>
        <mxCell id="TAm4954lU4xSoZH0EgDK-16" value="Power" style="edgeLabel;html=1;align=center;verticalAlign=middle;resizable=0;points=[];" parent="TAm4954lU4xSoZH0EgDK-15" vertex="1" connectable="0">
          <mxGeometry x="-0.0667" y="-1" relative="1" as="geometry">
            <mxPoint x="-2" y="-3" as="offset" />
          </mxGeometry>
        </mxCell>
        <mxCell id="TAm4954lU4xSoZH0EgDK-17" style="rounded=0;orthogonalLoop=1;jettySize=auto;html=1;entryX=0.25;entryY=0;entryDx=0;entryDy=0;fillColor=#fff2cc;strokeColor=#d6b656;exitX=0.25;exitY=1;exitDx=0;exitDy=0;" parent="1" source="0D3TFCyI8cRWbyXOFq5x-1" target="TAm4954lU4xSoZH0EgDK-1" edge="1">
          <mxGeometry relative="1" as="geometry">
            <mxPoint x="770" y="472" as="sourcePoint" />
            <mxPoint x="770" y="510" as="targetPoint" />
          </mxGeometry>
        </mxCell>
        <mxCell id="TAm4954lU4xSoZH0EgDK-18" value="Downlink" style="edgeLabel;html=1;align=center;verticalAlign=middle;resizable=0;points=[];" parent="TAm4954lU4xSoZH0EgDK-17" vertex="1" connectable="0">
          <mxGeometry x="-0.2833" y="1" relative="1" as="geometry">
            <mxPoint x="-2" y="-4" as="offset" />
          </mxGeometry>
        </mxCell>
        <mxCell id="TAm4954lU4xSoZH0EgDK-19" value="" style="rounded=0;orthogonalLoop=1;jettySize=auto;html=1;fillColor=#0050ef;strokeColor=#001DBC;entryX=0;entryY=0.25;entryDx=0;entryDy=0;exitX=0.101;exitY=1.009;exitDx=0;exitDy=0;exitPerimeter=0;edgeStyle=orthogonalEdgeStyle;" parent="1" source="0D3TFCyI8cRWbyXOFq5x-1" target="TAm4954lU4xSoZH0EgDK-1" edge="1">
          <mxGeometry relative="1" as="geometry">
            <mxPoint x="800" y="540" as="sourcePoint" />
            <mxPoint x="750" y="540" as="targetPoint" />
          </mxGeometry>
        </mxCell>
        <mxCell id="TAm4954lU4xSoZH0EgDK-20" value="Motor&lt;br&gt;Power" style="edgeLabel;html=1;align=center;verticalAlign=middle;resizable=0;points=[];" parent="TAm4954lU4xSoZH0EgDK-19" vertex="1" connectable="0">
          <mxGeometry x="-0.0506" y="-1" relative="1" as="geometry">
            <mxPoint x="2" y="-7" as="offset" />
          </mxGeometry>
        </mxCell>
        <mxCell id="TAm4954lU4xSoZH0EgDK-22" value="" style="rounded=0;orthogonalLoop=1;jettySize=auto;html=1;fillColor=#0050ef;strokeColor=#001DBC;exitX=0.099;exitY=1.028;exitDx=0;exitDy=0;edgeStyle=orthogonalEdgeStyle;exitPerimeter=0;dashed=1;" parent="1" source="0D3TFCyI8cRWbyXOFq5x-18" edge="1">
          <mxGeometry relative="1" as="geometry">
            <mxPoint x="690" y="420" as="sourcePoint" />
            <mxPoint x="740" y="300" as="targetPoint" />
          </mxGeometry>
        </mxCell>
        <mxCell id="TAm4954lU4xSoZH0EgDK-23" value="&lt;p style=&quot;line-height: 100%;&quot;&gt;&lt;font style=&quot;font-size: 11px;&quot;&gt;Thermistor &amp;amp; &lt;br&gt;Internal &lt;br&gt;Temperature &lt;br&gt;Data&lt;/font&gt;&lt;/p&gt;" style="edgeLabel;html=1;align=center;verticalAlign=middle;resizable=0;points=[];" parent="TAm4954lU4xSoZH0EgDK-22" vertex="1" connectable="0">
          <mxGeometry x="0.398" relative="1" as="geometry">
            <mxPoint x="-33" y="20" as="offset" />
          </mxGeometry>
        </mxCell>
        <mxCell id="0R4QB3fi8ScKVuRZq9Um-3" value="" style="rounded=0;orthogonalLoop=1;jettySize=auto;html=1;fillColor=#0050ef;strokeColor=#001DBC;entryX=0;entryY=0.5;entryDx=0;entryDy=0;exitX=1;exitY=0.5;exitDx=0;exitDy=0;" edge="1" parent="1" source="TAm4954lU4xSoZH0EgDK-1" target="0R4QB3fi8ScKVuRZq9Um-7">
          <mxGeometry relative="1" as="geometry">
            <mxPoint x="800" y="540" as="sourcePoint" />
            <mxPoint x="950" y="530" as="targetPoint" />
          </mxGeometry>
        </mxCell>
        <mxCell id="0R4QB3fi8ScKVuRZq9Um-4" value="" style="rounded=0;orthogonalLoop=1;jettySize=auto;html=1;fillColor=#0050ef;strokeColor=#001DBC;entryX=1;entryY=0.25;entryDx=0;entryDy=0;exitX=0.899;exitY=0.996;exitDx=0;exitDy=0;edgeStyle=orthogonalEdgeStyle;exitPerimeter=0;" edge="1" parent="1" source="0D3TFCyI8cRWbyXOFq5x-1" target="TAm4954lU4xSoZH0EgDK-1">
          <mxGeometry relative="1" as="geometry">
            <mxPoint x="950" y="440" as="sourcePoint" />
            <mxPoint x="900" y="499.9799999999999" as="targetPoint" />
            <Array as="points">
              <mxPoint x="929" y="480" />
              <mxPoint x="929" y="480" />
              <mxPoint x="929" y="515" />
            </Array>
          </mxGeometry>
        </mxCell>
        <mxCell id="0R4QB3fi8ScKVuRZq9Um-5" value="LED&lt;br&gt;Power" style="edgeLabel;html=1;align=center;verticalAlign=middle;resizable=0;points=[];" vertex="1" connectable="0" parent="0R4QB3fi8ScKVuRZq9Um-4">
          <mxGeometry x="-0.0506" y="-1" relative="1" as="geometry">
            <mxPoint x="1" y="-5" as="offset" />
          </mxGeometry>
        </mxCell>
        <mxCell id="0R4QB3fi8ScKVuRZq9Um-6" value="&lt;font style=&quot;font-size: 20px;&quot;&gt;Motor&lt;/font&gt;" style="rounded=0;whiteSpace=wrap;html=1;fillColor=#0050ef;strokeColor=#001DBC;fontColor=#ffffff;" vertex="1" parent="1">
          <mxGeometry x="650" y="510" width="90" height="40" as="geometry" />
        </mxCell>
        <mxCell id="0R4QB3fi8ScKVuRZq9Um-7" value="&lt;font style=&quot;font-size: 16px;&quot;&gt;LED&lt;br&gt;Panel&lt;br&gt;&lt;/font&gt;" style="rounded=0;whiteSpace=wrap;html=1;fillColor=#0050ef;strokeColor=#001DBC;fontColor=#ffffff;" vertex="1" parent="1">
          <mxGeometry x="950" y="510" width="90" height="40" as="geometry" />
        </mxCell>
      </root>
    </mxGraphModel>
  </diagram>
</mxfile>
